<svg xmlns="http://www.w3.org/2000/svg" width="24" height="20" viewBox="0 0 24 20" fill="none">
    <path fill-rule="evenodd" clip-rule="evenodd"
          d="M4 5C4 7.76142 6.23858 10 9 10C11.7601 9.99669 13.9967 7.76005 14 5C14 2.23858 11.7614 0 9 0C6.23858 0 4 2.23858 4 5ZM17 20C16.4477 20 16 19.5523 16 19V17C16 15.3431 14.6569 14 13 14H5C3.34315 14 2 15.3431 2 17V19C2 19.5523 1.55228 20 1 20C0.447715 20 0 19.5523 0 19V17C0.00330612 14.2399 2.23995 12.0033 5 12H13C15.7601 12.0033 17.9967 14.2399 18 17V19C18 19.5523 17.5523 20 17 20ZM23 20C22.4477 20 22 19.5523 22 19V17C21.9978 15.6338 21.0728 14.4416 19.75 14.1C19.2151 13.9619 18.8934 13.4164 19.0315 12.8815C19.1696 12.3466 19.7151 12.0249 20.25 12.163C22.4561 12.7326 23.9981 14.7216 24 17V19C24 19.2652 23.8946 19.5196 23.7071 19.7071C23.5196 19.8946 23.2652 20 23 20ZM9 2C7.34315 2 6 3.34315 6 5C6 6.65685 7.34315 8 9 8C10.6569 8 12 6.65685 12 5C12 3.34315 10.6569 2 9 2ZM15.0069 9.00496C15.0699 9.50534 15.4957 9.88048 16 9.88C16.085 9.88058 16.1697 9.87016 16.252 9.849C18.4649 9.28289 20.0128 7.28914 20.0128 5.005C20.0128 2.72086 18.4649 0.727109 16.252 0.161C15.7168 0.0229288 15.1711 0.344836 15.033 0.88C14.8949 1.41516 15.2168 1.96093 15.752 2.099C17.079 2.43923 18.0069 3.63512 18.0069 5.005C18.0069 6.37488 17.079 7.57077 15.752 7.911C15.2633 8.0356 14.9439 8.50459 15.0069 9.00496Z"
          fill="currentColor"/>
</svg>